<svg id="file-pdf" xmlns="http://www.w3.org/2000/svg" width="11.576" height="13.23" viewBox="0 0 11.576 13.23">
  <path id="Path_1023" data-name="Path 1023" d="M14,10.877a1.8,1.8,0,0,0-1.163-.274,9.6,9.6,0,0,0-1.4.1,3.542,3.542,0,0,1-.648-.448,4.737,4.737,0,0,1-1.17-1.817c.017-.066.031-.124.045-.184A11.75,11.75,0,0,0,9.873,6.13a.631.631,0,0,0-.036-.153l-.024-.062a.5.5,0,0,0-.459-.351l-.141,0a.519.519,0,0,0-.53.333,6.145,6.145,0,0,0,.323,2.775l-.081.2c-.227.554-.512,1.112-.763,1.6l-.033.064c-.264.517-.5.956-.721,1.328l-.224.119c-.017.009-.4.212-.491.267a2.741,2.741,0,0,0-1.357,1.388.341.341,0,0,0,.129.377l.217.109a.655.655,0,0,0,.3.071c.545,0,1.178-.679,2.05-2.2a20.39,20.39,0,0,1,3.158-.75,5.434,5.434,0,0,0,2.3.731,1.062,1.062,0,0,0,.27-.03.459.459,0,0,0,.269-.184.975.975,0,0,0,.107-.657.439.439,0,0,0-.13-.224Zm-8.144,2.9a3.8,3.8,0,0,1,1.075-1.286c.036-.03.127-.114.209-.193A3.871,3.871,0,0,1,5.857,13.778ZM9.3,5.841c.175,0,.275.442.283.856a1.753,1.753,0,0,1-.209.92,4.484,4.484,0,0,1-.148-1.149s-.007-.627.073-.627ZM8.276,11.5c.122-.219.249-.449.379-.693A13.223,13.223,0,0,0,9.32,9.352a4.793,4.793,0,0,0,1.1,1.363q.081.069.172.138a14.054,14.054,0,0,0-2.314.644h0Zm5.556-.05a.793.793,0,0,1-.306.053,3.6,3.6,0,0,1-1.268-.383c.213-.016.408-.024.583-.024a2.247,2.247,0,0,1,.728.079c.313.08.317.242.263.276h0Z" transform="translate(-3.95 -3.261)" fill="#707070"/>
  <path id="Path_1024" data-name="Path 1024" d="M13.031,2.96A11.735,11.735,0,0,0,11.9,1.672,11.653,11.653,0,0,0,10.616.545,2.061,2.061,0,0,0,9.442,0H3.034A1.035,1.035,0,0,0,2,1.034V12.2A1.035,1.035,0,0,0,3.034,13.23h9.509A1.035,1.035,0,0,0,13.576,12.2V4.134a2.06,2.06,0,0,0-.545-1.175h0Zm-1.711-.7a11.3,11.3,0,0,1,.938,1.051H10.269V1.318a11.3,11.3,0,0,1,1.051.938Zm1.429,9.94a.21.21,0,0,1-.207.207H3.034a.21.21,0,0,1-.207-.207V1.034A.21.21,0,0,1,3.034.827H9.442V3.721a.414.414,0,0,0,.413.413h2.894Z" transform="translate(-2 0)" fill="#707070"/>
</svg>
