<svg xmlns="http://www.w3.org/2000/svg" width="17.442" height="15" viewBox="0 0 17.442 15">
  <path id="line-graph" d="M.6,10.9l1.189.295L2.684,9.79l-1.7-.42A.789.789,0,1,0,.6,10.9Zm15.515.227-3.892,3.5L7.648,11.088a.782.782,0,0,0-.295-.141L6.744,10.8l-.9,1.405.959.238,4.968,3.844a.8.8,0,0,0,1.018-.038L17.179,12.3a.785.785,0,0,0,.056-1.114.8.8,0,0,0-1.12-.056ZM7.572,7.28l4.262,2.728a.8.8,0,0,0,1.081-.215L17.3,3.479a.786.786,0,0,0-.2-1.1.794.794,0,0,0-1.1.2L12.045,8.267,7.758,5.523a.793.793,0,0,0-1.1.241L.122,16.026a.792.792,0,0,0,1.338.847L7.571,7.28Z" transform="translate(0.002 -2.239)" fill="#87898c"/>
</svg>
