<svg xmlns="http://www.w3.org/2000/svg" width="16.305" height="15" viewBox="0 0 16.305 15">
  <path id="open-book" d="M8.751,5.032l.366,1.126A3.391,3.391,0,0,1,10.3,5.5a7.181,7.181,0,0,1,1.3-.3l-.353-1.086a7.731,7.731,0,0,0-1.3.3,4.3,4.3,0,0,0-1.2.608Zm.761,2.344L9.878,8.5a3.391,3.391,0,0,1,1.183-.653,7.181,7.181,0,0,1,1.3-.3l-.353-1.086a7.731,7.731,0,0,0-1.3.3,4.261,4.261,0,0,0-1.2.608Zm.762,2.343.366,1.126a3.391,3.391,0,0,1,1.183-.653,7.181,7.181,0,0,1,1.3-.3l-.353-1.086a7.731,7.731,0,0,0-1.3.3,4.267,4.267,0,0,0-1.2.608ZM4.477,11.5l.353,1.086a7.173,7.173,0,0,1,1.225-.522A3.406,3.406,0,0,1,7.395,11.9l-.366-1.126a4.31,4.31,0,0,0-1.326.211,7.756,7.756,0,0,0-1.226.517ZM2.954,6.815,3.307,7.9a7.256,7.256,0,0,1,1.225-.522,3.406,3.406,0,0,1,1.341-.167L5.507,6.086A4.324,4.324,0,0,0,4.18,6.3a7.756,7.756,0,0,0-1.226.517Zm.761,2.344.353,1.086a7.173,7.173,0,0,1,1.225-.522,3.406,3.406,0,0,1,1.341-.167L6.268,8.429a4.31,4.31,0,0,0-1.326.211,7.719,7.719,0,0,0-1.227.518ZM9.136,1.924a4.318,4.318,0,0,0-2.506,2.1A4.315,4.315,0,0,0,3.368,3.8,7.476,7.476,0,0,0,.11,5.955L3.472,16.287a.41.41,0,0,0,.721.117,5.01,5.01,0,0,1,2.674-1.84,3.155,3.155,0,0,1,3,.475.4.4,0,0,0,.625-.22,3.153,3.153,0,0,1,2.143-2.129,5.009,5.009,0,0,1,3.248-.082.407.407,0,0,0,.513-.516L13.039,1.754a7.482,7.482,0,0,0-3.9.17ZM9.043,13.29a4.278,4.278,0,0,0-2.579.036,7.01,7.01,0,0,0-2.215,1.152L1.586,6.284A5.444,5.444,0,0,1,3.771,5.035a3.207,3.207,0,0,1,2.691.31l2.581,7.944ZM14.7,11.082a7,7,0,0,0-2.471.37,4.271,4.271,0,0,0-2.107,1.486L7.544,4.995A3.2,3.2,0,0,1,9.538,3.162a5.444,5.444,0,0,1,2.5-.274l2.663,8.2Z" transform="translate(-0.11 -1.574)" fill="#87898c"/>
</svg>
