<svg xmlns="http://www.w3.org/2000/svg" width="23.333" height="15" viewBox="0 0 23.333 15">
  <path id="profile3" d="M23.667,22h-2.5v-.833a.833.833,0,0,0,0-1.667H19.5a.833.833,0,1,0,0,1.667V22H8.667v-.833a.833.833,0,1,0,0-1.667H7a.833.833,0,1,0,0,1.667V22H3.667A1.667,1.667,0,0,1,2,20.333V8.667A1.667,1.667,0,0,1,3.667,7h20a1.667,1.667,0,0,1,1.667,1.667V20.333A1.667,1.667,0,0,1,23.667,22Zm-15-12.657a2.169,2.169,0,0,0-1.823,2.4,2.169,2.169,0,0,0,1.823,2.4,2.169,2.169,0,0,0,1.823-2.4A2.169,2.169,0,0,0,8.667,9.343Zm2.908,5.73a6.4,6.4,0,0,0-1.742-.5s-.838.9-1.194.9-1.2-.9-1.2-.9a6.36,6.36,0,0,0-1.742.5c-.449.3-.647,1.884-.647,1.884h7.179s-.131-1.533-.658-1.884ZM22,10.333H14.5v.833H22ZM22,12H14.5v.833H22Zm0,1.667H14.5V14.5H22Zm0,1.667H14.5v.833H22Z" transform="translate(-2 -7)" fill="#87898c"/>
</svg>
