<svg id="unchecked-approve" xmlns="http://www.w3.org/2000/svg" xmlns:xlink="http://www.w3.org/1999/xlink" width="20" height="20" viewBox="0 0 20 20">
  <defs>
    <clipPath id="clip-path">
      <rect id="Rectangle_4777" data-name="Rectangle 4777" width="20" height="20" fill="#b4b7b9"/>
    </clipPath>
  </defs>
  <g id="Group_4704" data-name="Group 4704" clip-path="url(#clip-path)">
    <path id="Path_4736" data-name="Path 4736" d="M15.47,4.394a1.249,1.249,0,0,0-1.71.394L8.438,13.247l-2.27-2.9a1.247,1.247,0,0,0-1.741-.219A1.22,1.22,0,0,0,4.2,11.846l3.347,4.281c.019.024.042.04.062.062a1.2,1.2,0,0,0,.128.129c.013.012.028.022.042.033a1.3,1.3,0,0,0,.111.085c.027.016.056.022.084.037s.034.014.052.022a1.232,1.232,0,0,0,.519.127A1.247,1.247,0,0,0,9.6,16.043l6.263-9.957a1.22,1.22,0,0,0-.4-1.692" fill="#b4b7b9"/>
    <path id="Path_4737" data-name="Path 4737" d="M10,20A10,10,0,1,1,20,10,10.01,10.01,0,0,1,10,20M10,.952A9.048,9.048,0,1,0,19.048,10,9.058,9.058,0,0,0,10,.952" fill="#b4b7b9"/>
  </g>
</svg>
