<svg id="unchecked-flag" xmlns="http://www.w3.org/2000/svg" xmlns:xlink="http://www.w3.org/1999/xlink" width="20" height="20" viewBox="0 0 20 20">
  <defs>
    <clipPath id="clip-path">
      <rect id="Rectangle_4807" data-name="Rectangle 4807" width="20" height="20" fill="#b4b7b9"/>
    </clipPath>
  </defs>
  <g id="Group_4995" data-name="Group 4995" clip-path="url(#clip-path)">
    <path id="Path_4763" data-name="Path 4763" d="M10,20A10,10,0,1,1,20,10,10.012,10.012,0,0,1,10,20M10,.952A9.048,9.048,0,1,0,19.047,10,9.057,9.057,0,0,0,10,.952" fill="#b4b7b9"/>
    <path id="Path_4764" data-name="Path 4764" d="M17.18,6.517c-6.349,10.825-4.175-.208-9.544,5.072l1.22,5.629H7.486L4.993,5.724l1.259-.53c6.015-5.163,2.875,4.643,10.63,1C17.126,6.077,17.327,6.266,17.18,6.517Z" fill="#b4b7b9"/>
  </g>
</svg>
